<svg width="157" height="54" viewBox="0 0 157 54" fill="none" xmlns="http://www.w3.org/2000/svg">
<g clip-path="url(#clip0_1674_2283)">
<path fill-rule="evenodd" clip-rule="evenodd" d="M78.1798 0H78.2998C79.0082 0.0332715 79.6769 0.337008 80.1681 0.848633C80.6592 1.36026 80.9354 2.04079 80.9398 2.75V8.63C80.9624 9.00576 80.908 9.38219 80.7798 9.73611C80.6515 10.09 80.4523 10.414 80.1942 10.688C79.9362 10.9621 79.6248 11.1805 79.2793 11.3298C78.9337 11.479 78.5612 11.5561 78.1848 11.5561C77.8083 11.5561 77.4359 11.479 77.0903 11.3298C76.7447 11.1805 76.4334 10.9621 76.1753 10.688C75.9173 10.414 75.718 10.09 75.5898 9.73611C75.4616 9.38219 75.4071 9.00576 75.4298 8.63V2.75C75.4324 2.02147 75.723 1.32354 76.2382 0.80838C76.7533 0.293225 77.4512 0.00263487 78.1798 0ZM57.8098 7.36002C58.3341 6.88524 59.0206 6.62986 59.7278 6.64661C60.4349 6.66335 61.1085 6.95095 61.6098 7.45001L65.7698 11.6C66.0432 11.8521 66.2629 12.1568 66.4156 12.4959C66.5684 12.835 66.651 13.2014 66.6586 13.5732C66.6661 13.9451 66.5985 14.3146 66.4597 14.6596C66.3208 15.0046 66.1137 15.318 65.8508 15.581C65.5878 15.844 65.2744 16.0511 64.9294 16.1899C64.5844 16.3287 64.2148 16.3964 63.843 16.3888C63.4712 16.3812 63.1047 16.2986 62.7657 16.1459C62.4266 15.9931 62.1218 15.7734 61.8698 15.5L57.7098 11.35C57.1956 10.8313 56.9071 10.1304 56.9071 9.39999C56.9071 8.66959 57.1956 7.96877 57.7098 7.45001L57.8098 7.36002ZM94.8098 7.45001C95.0618 7.17656 95.3666 6.95687 95.7057 6.80414C96.0447 6.6514 96.4112 6.56878 96.783 6.56122C97.1548 6.55365 97.5243 6.62131 97.8694 6.76013C98.2144 6.89895 98.5278 7.10605 98.7907 7.36902C99.0537 7.63199 99.2609 7.94539 99.3997 8.29041C99.5385 8.63542 99.6062 9.00495 99.5986 9.37677C99.591 9.74859 99.5084 10.115 99.3556 10.4541C99.2029 10.7932 98.9833 11.0979 98.7098 11.35L94.5598 15.5C94.041 16.0142 93.3402 16.3027 92.6098 16.3027C91.8794 16.3027 91.1785 16.0142 90.6598 15.5L90.5698 15.4C90.0973 14.8746 89.8434 14.1885 89.8601 13.4821C89.8769 12.7757 90.1629 12.1024 90.6598 11.6L94.8098 7.45001ZM78.1798 15.45C81.1144 15.4507 83.9971 16.2248 86.5374 17.6942C89.0778 19.1636 91.1859 21.2765 92.6497 23.82H63.7098C65.1761 21.2802 67.2855 19.1713 69.8256 17.7055C72.3657 16.2397 75.2471 15.4687 78.1798 15.47V15.45ZM147.8 32.92C147.034 32.9317 146.299 33.2211 145.73 33.7343C145.162 34.2474 144.799 34.9495 144.71 35.71H150.8C150.733 34.9564 150.39 34.2541 149.836 33.7389C149.282 33.2236 148.556 32.9319 147.8 32.92ZM8.85977 33.82C8.16867 33.818 7.49254 34.0213 6.91708 34.404C6.34163 34.7867 5.89277 35.3317 5.62738 35.9698C5.36199 36.6079 5.29202 37.3105 5.42636 37.9884C5.5607 38.6663 5.8933 39.2891 6.38199 39.7778C6.87068 40.2665 7.49346 40.5991 8.17139 40.7334C8.84931 40.8677 9.55185 40.7978 10.19 40.5324C10.8281 40.267 11.373 39.8181 11.7558 39.2427C12.1385 38.6672 12.3418 37.9911 12.3398 37.3C12.3371 36.3778 11.9697 35.4942 11.3176 34.8422C10.6655 34.1901 9.78191 33.8226 8.85977 33.82ZM29.1198 33.7C28.3837 33.6781 27.6578 33.8764 27.0351 34.2694C26.4123 34.6624 25.921 35.2323 25.624 35.9062C25.327 36.5801 25.2379 37.3272 25.368 38.0521C25.4981 38.7769 25.8415 39.4464 26.3543 39.9749C26.8671 40.5034 27.526 40.8669 28.2465 41.0188C28.9671 41.1707 29.7166 41.1042 30.3991 40.8276C31.0816 40.5511 31.6661 40.0772 32.0778 39.4666C32.4894 38.856 32.7095 38.1364 32.7098 37.4C32.7177 36.9212 32.6311 36.4454 32.4548 36.0001C32.2786 35.5548 32.0162 35.1487 31.6827 34.8049C31.3492 34.4612 30.9511 34.1867 30.5114 33.9971C30.0716 33.8075 29.5987 33.7065 29.1198 33.7ZM99.1798 33.82C98.4531 33.818 97.7421 34.0318 97.1371 34.4343C96.532 34.8368 96.0601 35.4099 95.7811 36.0809C95.5021 36.7519 95.4286 37.4907 95.5699 38.2036C95.7111 38.9164 96.0609 39.5712 96.5747 40.0851C97.0886 40.5989 97.7434 40.9487 98.4563 41.09C99.1691 41.2313 99.9078 41.1577 100.579 40.8787C101.25 40.5997 101.823 40.1278 102.225 39.5227C102.628 38.9176 102.842 38.2067 102.84 37.48C102.837 36.5101 102.451 35.5807 101.765 34.8949C101.079 34.2091 100.15 33.8226 99.1798 33.82ZM131.18 28.94C134.09 28.94 136.86 31.12 136.86 35.21V45.63H131.36V36.21C131.389 35.8954 131.353 35.578 131.253 35.2782C131.153 34.9784 130.991 34.7028 130.778 34.4691C130.566 34.2354 130.307 34.0487 130.017 33.921C129.728 33.7932 129.416 33.7272 129.1 33.7272C128.784 33.7272 128.471 33.7932 128.182 33.921C127.893 34.0487 127.634 34.2354 127.421 34.4691C127.208 34.7028 127.047 34.9784 126.947 35.2782C126.847 35.578 126.81 35.8954 126.84 36.21V45.63H121.34V36.21C121.369 35.8954 121.333 35.578 121.233 35.2782C121.133 34.9784 120.971 34.7028 120.758 34.4691C120.546 34.2354 120.287 34.0487 119.997 33.921C119.708 33.7932 119.396 33.7272 119.08 33.7272C118.764 33.7272 118.451 33.7932 118.162 33.921C117.873 34.0487 117.614 34.2354 117.401 34.4691C117.188 34.7028 117.027 34.9784 116.927 35.2782C116.827 35.578 116.79 35.8954 116.82 36.21V45.63H111.32V29.34H116.5V31.34H116.64C117.157 30.5757 117.855 29.9505 118.671 29.5197C119.487 29.0889 120.397 28.8658 121.32 28.87C122.26 28.8842 123.179 29.153 123.978 29.6478C124.777 30.1426 125.428 30.8449 125.86 31.68H126C126.566 30.8211 127.334 30.1147 128.238 29.6229C129.141 29.1311 130.151 28.8691 131.18 28.86V28.94ZM81.9798 28.94C84.9798 28.94 87.8398 31.08 87.8398 35.26V45.62H82.3398V36.4C82.378 36.0535 82.3428 35.7027 82.2364 35.3707C82.13 35.0387 81.9548 34.7329 81.7222 34.4731C81.4896 34.2134 81.2048 34.0056 80.8865 33.8634C80.5682 33.7212 80.2234 33.6476 79.8748 33.6476C79.5261 33.6476 79.1814 33.7212 78.8631 33.8634C78.5447 34.0056 78.26 34.2134 78.0274 34.4731C77.7948 34.7329 77.6195 35.0387 77.5131 35.3707C77.4067 35.7027 77.3715 36.0535 77.4098 36.4V45.62H71.9098V29.34H77.0898V31.34H77.1798C77.7326 30.5945 78.4473 29.9841 79.27 29.5545C80.0927 29.125 81.0021 28.8875 81.9298 28.86L81.9798 28.94ZM48.1798 19.04C49.1894 19.0398 50.1958 19.1538 51.1798 19.38V23.82C50.8252 23.7184 50.4586 23.6645 50.0898 23.66C48.6098 23.66 47.3198 24.27 47.3198 26.23V29.37H50.6798V33.82H47.3198V45.61H41.8198V33.82H39.4298V29.37H41.8198V25.08C41.8198 21.02 44.6998 19.02 48.1998 19.02L48.1798 19.04ZM108.28 19.5V45.62H103.1V43.42H102.96C102.292 44.1878 101.469 44.8058 100.545 45.2332C99.6212 45.6606 98.6175 45.8878 97.5998 45.9C93.1298 45.9 90.1698 41.83 90.1698 37.41C90.1698 32.99 93.1698 28.94 97.5998 28.94C98.5402 28.9273 99.4726 29.1152 100.335 29.4911C101.197 29.867 101.969 30.4223 102.6 31.12H102.74V19.46L108.28 19.5ZM29.0998 28.79C34.0998 28.79 38.1598 32.31 38.1598 37.38C38.1598 42.45 34.0898 45.97 29.0998 45.97C24.1098 45.97 20.0998 42.49 20.0998 37.38C20.0998 32.27 24.0998 28.79 29.0998 28.79ZM147.78 28.93C148.914 28.9026 150.043 29.1058 151.097 29.5272C152.151 29.9485 153.108 30.5794 153.911 31.3815C154.714 32.1836 155.346 33.1403 155.769 34.1937C156.191 35.2471 156.396 36.3753 156.37 37.51C156.369 37.8847 156.342 38.259 156.29 38.63V38.71H144.79C144.99 40.8 146.29 41.98 147.88 41.98C148.37 41.9742 148.853 41.8632 149.296 41.6545C149.74 41.4457 150.133 41.1441 150.45 40.77L150.56 40.64H155.87C155.254 42.2724 154.143 43.6711 152.692 44.6396C151.241 45.6081 149.523 46.0978 147.78 46.04C143.47 46.04 139.19 43.2 139.19 37.52C139.164 36.3853 139.368 35.2571 139.791 34.2037C140.213 33.1503 140.845 32.1936 141.648 31.3915C142.451 30.5894 143.409 29.9585 144.463 29.5372C145.517 29.1158 146.645 28.9126 147.78 28.94V28.93ZM58.6298 29.36V38.6C58.6298 39.2392 58.8837 39.8522 59.3357 40.3041C59.7876 40.7561 60.4006 41.01 61.0398 41.01C61.6789 41.01 62.2919 40.7561 62.7439 40.3041C63.1959 39.8522 63.4498 39.2392 63.4498 38.6V29.36H68.9498V38.51C68.9498 43.19 65.7298 46.05 61.0398 46.05C56.3498 46.05 53.1298 43.3 53.1298 38.51V29.36H58.6298ZM7.24979 28.97C8.24424 28.9459 9.23113 29.1485 10.1356 29.5626C11.04 29.9767 11.8383 30.5914 12.4698 31.36H12.6098V29.36H17.7898V45.67C17.7898 51.08 13.3198 53.67 8.88977 53.67C4.45977 53.67 0.389792 51.22 0.349792 46.67H5.49979C5.50649 47.0896 5.59944 47.5034 5.77286 47.8856C5.94627 48.2677 6.19643 48.6101 6.50781 48.8915C6.81919 49.1728 7.18512 49.3872 7.58286 49.5211C7.98059 49.655 8.40164 49.7057 8.81979 49.67C9.29749 49.6908 9.77406 49.6089 10.2173 49.4297C10.6606 49.2505 11.0603 48.9782 11.3893 48.6312C11.7182 48.2842 11.9689 47.8706 12.1242 47.4184C12.2796 46.9662 12.336 46.4859 12.2898 46.01V43.51H12.1498C11.5307 44.1928 10.7739 44.7365 9.92923 45.1054C9.08461 45.4743 8.17139 45.6599 7.24979 45.65C2.90979 45.65 0.00976562 41.51 0.00976562 37.27C0.00976562 33.03 2.89979 29 7.24979 29V28.97Z" fill="#02A95C"/>
</g>
<defs>
<clipPath id="clip0_1674_2283">
<rect width="156.36" height="53.65" fill="white"/>
</clipPath>
</defs>
</svg>
